<?xml version="1.0" encoding="utf-8"?>
<!-- Generator: Adobe Illustrator 16.0.3, SVG Export Plug-In . SVG Version: 6.00 Build 0)  -->
<!DOCTYPE svg PUBLIC "-//W3C//DTD SVG 1.1//EN" "http://www.w3.org/Graphics/SVG/1.1/DTD/svg11.dtd">
<svg version="1.1" xmlns="http://www.w3.org/2000/svg" xmlns:xlink="http://www.w3.org/1999/xlink" x="0px" y="0px"
	 width="595.28px" height="595.28px" viewBox="0 0 595.28 595.28" enable-background="new 0 0 595.28 595.28" xml:space="preserve">

<g id="Forma">
	<polygon fill="none" points="291.78,228.84 291.78,456.91 264.62,441.23 264.62,253.14 230.12,253.14 230.12,421.31 
		205.48,407.08 205.48,228.84 	"/>
	<polygon fill="#0D369E" points="264.62,253.14 264.62,441.23 230.12,421.31 230.12,253.14 	"/>
	<polygon fill="none" points="447.07,228.89 447.07,263.72 412.57,263.72 412.57,263.64 360.5,263.64 360.5,437.14 
		360.52,437.14 326.58,456.74 326.58,228.91 412.57,228.91 412.57,228.89 	"/>
	<polygon fill="#0D369E" points="447.07,227.77 447.07,228.89 412.57,228.89 412.57,228.91 326.58,228.91 326.58,456.74 
		309.03,466.871 291.78,456.91 291.78,228.84 205.48,228.84 205.48,407.08 170.99,387.17 170.99,227.77 309.03,148.08 	"/>
	<polygon fill="#0D369E" points="447.07,263.72 447.07,387.17 412.88,406.91 360.52,437.14 360.5,437.14 360.5,263.64 
		412.57,263.64 412.57,263.72 	"/>
	
</g>

</svg>
